<svg xmlns="http://www.w3.org/2000/svg" viewBox="0 0 300.25 300.25"><path d="M238.703 127.946c-5.119 0-10.089.487-14.847 1.67l-18.955-50.955h6.176c9.72 0 18.913-3.577 25.887-10.345l6.541-6.273c2.973-2.885 3.043-7.595.158-10.568s-7.633-3.024-10.605-.139l-6.541 6.206c-4.159 4.037-9.643 6.118-15.439 6.118h-16.979c-2.458 0-4.76 1.356-6.161 3.375-1.401 2.02-1.725 4.673-.865 6.975l7.214 19.372c-.046-.001-.093.141-.139.141-.016 0-.032.137-.049.137H98.126L85.165 71.823l14.078-4.895c3.467-1.191 5.564-4.55 4.961-8.166-.604-3.615-3.731-6.101-7.397-6.101h-41.21c-5.775 0-10.475 4.506-10.475 10.281 0 8.941 7.266 16.12 16.196 16.12 1.79 0 3.565-.347 5.277-.934l4.103-1.433 13.146 21.996-10.097 30.285a61.308 61.308 0 00-10.193-1.201c-17.589-.563-34.055 6.138-46.219 18.697C5.641 158.546-.505 174.464.032 191.294c1.032 32.337 27.172 58.476 59.509 59.508.673.021 1.34.032 2.008.032 16.811 0 32.513-6.716 44.212-18.794 9.464-9.773 15.291-22.38 16.885-35.38h12.051c2.598 2 5.961 3.634 9.639 3.634 8.196 0 14.864-6.636 14.864-14.833 0-2.661-.712-5.139-1.942-7.303l42.042-71.305 10.553 28.289c-19.435 10.359-32.698 30.831-32.698 54.348 0 33.938 27.61 61.549 61.548 61.549s61.547-27.61 61.547-61.547-27.609-61.546-61.547-61.546zm-57.724-19.285l-36.606 62.091c-.013 0-.025-.062-.037-.062-.043 0-.084.096-.127.097l-37.131-62.125h73.901zm-86.987 7.008l37.378 62.514c-.618 1.101-1.089 2.478-1.412 3.478h-7.326c-2.591-21-16.064-39.121-34.658-48.001l6.018-17.991zm-19.545 65.992c-.503-1-1.081-1.526-1.728-2.233l8.865-26.626c10.72 5.925 18.562 16.859 20.834 28.859H74.447zm16.948 36.465c-8.215 8.481-19.311 13.04-31.215 12.655-21.822-.696-39.461-18.319-40.157-40.141-.363-11.369 3.784-22.112 11.679-30.262 7.898-8.154 18.497-12.642 29.845-12.642a41.592 41.592 0 015.808.413l-8.966 26.9c-6.569 1.537-11.481 7.43-11.481 14.461 0 8.196 6.668 14.801 14.863 14.801 5.552 0 10.395-2.65 12.947-7.65h27.699a41.428 41.428 0 01-11.022 21.465zm147.308 12.916c-22.909 0-41.548-18.639-41.548-41.548 0-14.932 7.921-28.044 19.779-35.369l14.098 37.785a7.5 7.5 0 007.027 4.88 7.45 7.45 0 002.621-.476 7.498 7.498 0 004.404-9.648l-14.169-37.977a41.554 41.554 0 017.788-.743c22.909 0 41.547 18.639 41.547 41.548s-18.637 41.548-41.547 41.548z"/></svg>