<svg xmlns="http://www.w3.org/2000/svg" viewBox="0 0 512 512"><path d="M96 160H53.333c-5.888 0-10.667 4.779-10.667 10.667s4.779 10.667 10.667 10.667H96c5.888 0 10.667-4.779 10.667-10.667S101.888 160 96 160z"/><path d="M436.843 188.779c-2.027-6.379-42.731-92.629-57.963-101.888C363.029 77.248 268.203 74.667 256 74.667s-107.029 2.581-122.88 12.224c-15.232 9.237-55.936 95.509-57.963 101.888-1.792 5.611 1.344 11.605 6.955 13.397 5.675 1.771 11.627-1.344 13.397-6.955 3.349-10.603 40.341-82.795 48.469-89.963C153.003 100.949 219.456 96 256 96s102.997 4.949 111.275 8.747c8.853 7.68 45.867 79.872 49.216 90.475a10.695 10.695 0 0010.176 7.445c1.067 0 2.155-.149 3.243-.491 5.589-1.792 8.725-7.787 6.933-13.397zM96 373.333c-4.992 0-9.003 3.499-10.155 8.128l-64.512-16.128v-2.667c0-5.888-4.779-10.667-10.667-10.667S0 356.779 0 362.667v42.667c0 17.643 14.357 32 32 32h42.667c17.643 0 32-14.357 32-32V384c0-5.888-4.779-10.667-10.667-10.667zM501.333 352c-5.888 0-10.667 4.779-10.667 10.667v2.667l-64.512 16.128c-1.152-4.629-5.163-8.128-10.155-8.128-5.888 0-10.667 4.779-10.667 10.667v21.333c0 17.643 14.357 32 32 32H480c17.643 0 32-14.357 32-32v-42.667c0-5.888-4.779-10.667-10.667-10.667z"/><path d="M458.667 160H416c-5.888 0-10.667 4.779-10.667 10.667s4.779 10.667 10.667 10.667h42.667c5.888 0 10.667-4.779 10.667-10.667S464.555 160 458.667 160zM511.168 260.629l-29.099 5.824c-3.584.555-75.221 10.88-93.376 10.88-2.603 2.069-4.949 15.765-4.672 28.587 65.024-3.072 115.648-7.147 116.459-7.211l11.499-1.557c-.022-14.144-.235-26.219-.811-36.523z"/><path d="M493.675 213.739c-4.779-1.387-7.275-4.864-12.011-11.947l-3.648-5.333c-6.379-8.896-18.709-9.28-30.635-9.621-3.584-.107-9.259-.277-11.947-.896a10.415 10.415 0 00-3.648-3.285C411.883 171.712 336.469 160 256 160s-155.883 11.712-175.787 22.656a10.522 10.522 0 00-3.669 3.307c-2.688.619-8.363.789-11.947.896-11.904.341-24.235.704-30.613 9.6l-3.648 5.355c-4.736 7.083-7.232 10.56-12.011 11.947-8.363 2.453-12.949 11.029-15.488 26.624l21.077 5.269c.341 0 69.931 10.347 93.419 10.347 8.064 0 15.168 3.072 20.544 8.875 11.307 12.224 11.84 33.643 11.563 41.984 34.325 1.429 71.381 2.475 106.56 2.475 35.221 0 72.299-1.045 106.667-2.475-.235-9.429.299-33.045 10.859-44.203 4.139-4.352 9.365-6.656 15.168-6.656 13.803 0 69.504-7.616 89.792-10.56l30.528-6.123c-2.561-14.955-7.147-23.19-15.339-25.579zM330.667 288H181.333c-5.888 0-10.667-4.779-10.667-10.667s4.779-10.667 10.667-10.667h149.333c5.888 0 10.667 4.779 10.667 10.667S336.555 288 330.667 288zM502.741 319.915c-1.856.149-133.845 10.752-246.741 10.752S11.115 320.064 9.813 319.979l-9.259-.96c1.152 23.147 4.715 57.856 15.765 63.744 11.52 6.123 144.789 11.904 239.68 11.904s228.16-5.781 239.659-11.925c11.093-5.909 14.656-40.853 15.787-64l-8.704 1.173z"/><path d="M122.197 279.339c-1.323-1.429-2.731-2.005-4.864-2.005-25.173 0-94.635-10.347-97.579-10.773L.746 261.825C.213 271.936.021 283.776 0 297.493l11.755 1.216c.683.064 51.285 4.117 116.309 7.211.213-7.701-.811-21.12-5.867-26.581z"/></svg>