<svg xmlns="http://www.w3.org/2000/svg" viewBox="0 0 512 512"><path d="M320.068 164.482a7.585 7.585 0 00-9.292 5.364l-46.673 174.195-37.251 21.506-1.475-15.559 22.007-12.706a7.586 7.586 0 003.769-7.181l-7.982-98.789a7.587 7.587 0 00-11.354-5.959l-17.306 9.992-1.153-12.163c-.396-4.172-4.104-7.229-8.268-6.837a7.587 7.587 0 00-6.837 8.269l14.61 154.126a7.586 7.586 0 0011.345 5.854l50.204-28.985a7.581 7.581 0 003.534-4.607l47.488-177.23a7.588 7.588 0 00-5.366-9.29zm-96.266 168.897l-7.718-81.421 12.93-7.465 6.63 82.05-11.842 6.836zM224.504 102.5L117.996 73.96a7.592 7.592 0 00-5.757.758l-50.205 28.986a7.586 7.586 0 00-.603 12.754l26.143 18.588c.018.014.037.025.056.039l43.683 31.058a7.552 7.552 0 004.389 1.404 7.586 7.586 0 004.403-13.77l-33.916-24.113 11.84-6.836 40.308 27.823a7.553 7.553 0 004.303 1.343 7.587 7.587 0 004.316-13.83L122.7 107.615a7.588 7.588 0 00-8.103-.327L92.59 119.995l-12.738-9.056 37.252-21.507 103.473 27.725a7.587 7.587 0 009.292-5.364 7.587 7.587 0 00-5.365-9.293zM195.055 281.103a7.586 7.586 0 00-10.363-2.777l-37.098 21.418c-8.916 5.148-19.043 7.904-29.287 7.972a7.587 7.587 0 00.05 15.172h.051c12.868-.084 25.584-3.543 36.774-10.004l37.098-21.418a7.587 7.587 0 002.775-10.363z"/><path d="M307.141 86.762a7.586 7.586 0 00-10.363-2.777L95.018 200.471 47.662 176.53a7.593 7.593 0 00-7.216.2L3.793 197.892a7.585 7.585 0 00-2.5 10.806l54.676 81.228c8.567 12.733 20.643 22.385 34.923 27.912a7.58 7.58 0 002.737.514 7.586 7.586 0 002.741-14.663C85 299.288 75.382 291.6 68.556 281.456l-9.528-14.154 21.614-12.478a7.583 7.583 0 002.093-11.355l-40.736-50.112 2.479-1.431 47.356 23.941a7.59 7.59 0 007.216-.2l205.313-118.54a7.588 7.588 0 002.778-10.365zM65.348 246.131l-14.813 8.553-32.117-47.714 10.273-5.932 36.657 45.093zM505.979 61.223c-5.683-9.844-14.862-16.888-25.847-19.83-10.712-2.871-21.895-1.5-31.578 3.854l-13.033-5.823c-21.73-9.71-47.01-8.401-67.622 3.499L318.678 71.34a7.587 7.587 0 007.587 13.14l42.654-24.626 4.943 8.563c6.003 10.398 16.93 16.216 28.152 16.216a32.235 32.235 0 0016.167-4.341l34.577-19.963.018-.009 2.654-1.532c6.335-3.658 13.714-4.629 20.771-2.738 7.07 1.895 12.977 6.426 16.634 12.761 7.546 13.071 3.049 29.846-10.027 37.397l-154.343 89.11a7.587 7.587 0 007.586 13.139l154.345-89.111c20.324-11.734 27.313-37.807 15.583-58.123zm-95.382 5.929c-8.248 4.761-18.831 1.927-23.593-6.322l-4.69-8.125c14.965-6.227 32.047-6.118 47.019.572l2.986 1.334-21.722 12.541z"/><path d="M137.356 226.048c-6.225-2.404-12.405 4.194-9.606 10.259 1.459 3.159 4.953 4.89 8.354 4.254 3.313-.691 5.827-3.501 6.086-6.888.252-3.295-1.765-6.44-4.834-7.625zM193.388 199.187a7.585 7.585 0 00-10.358-2.772 7.58 7.58 0 00-2.782 10.358 7.573 7.573 0 006.575 3.793c1.295 0 2.6-.324 3.793-1.012 3.622-2.093 4.866-6.735 2.772-10.367zM167.29 214.26a7.58 7.58 0 00-10.358-2.782 7.591 7.591 0 00-2.782 10.368 7.598 7.598 0 006.585 3.793c1.285 0 2.59-.324 3.783-1.022a7.583 7.583 0 002.772-10.357zM219.487 184.126a7.58 7.58 0 00-10.358-2.782 7.591 7.591 0 00-2.782 10.368 7.598 7.598 0 006.585 3.793c1.285 0 2.59-.334 3.783-1.022 3.622-2.092 4.866-6.735 2.772-10.357zM323.877 123.848c-2.093-3.621-6.737-4.865-10.358-2.772-3.631 2.094-4.875 6.737-2.782 10.358a7.573 7.573 0 0010.368 2.781c3.621-2.093 4.867-6.736 2.772-10.367zM297.779 138.921a7.568 7.568 0 00-10.358-2.772 7.58 7.58 0 003.793 14.151c1.295 0 2.6-.324 3.793-1.022a7.582 7.582 0 002.772-10.357zM271.681 153.982c-2.094-3.621-6.727-4.865-10.358-2.772s-4.876 6.737-2.782 10.368a7.595 7.595 0 006.575 3.793c1.295 0 2.6-.334 3.793-1.022 3.622-2.092 4.866-6.735 2.772-10.367zM245.585 169.054c-2.094-3.631-6.727-4.865-10.358-2.772a7.58 7.58 0 00-2.782 10.358 7.57 7.57 0 006.575 3.793c1.295 0 2.6-.324 3.793-1.012a7.598 7.598 0 002.772-10.367zM338.256 107.012c-2.686 2.478-3.214 6.737-1.157 9.776 1.773 2.698 5.231 3.957 8.33 3.097 2.933-.814 5.121-3.356 5.507-6.376.875-6.871-7.612-11.178-12.68-6.497zM504.413 426.938h-45.51V349.56h4.93a7.587 7.587 0 007.495-6.407l7.948-50.49h8.381c4.191 0 7.587-3.397 7.587-7.587s-3.396-7.587-7.587-7.587h-44.685v-34.137c0-4.19-3.396-7.587-7.587-7.587s-7.587 3.397-7.587 7.587v34.137h-44.684c-4.191 0-7.587 3.397-7.587 7.587s3.396 7.587 7.587 7.587h8.381l7.948 50.49a7.587 7.587 0 007.495 6.407h4.93v77.378H8.759a7.587 7.587 0 000 15.174h495.655a7.587 7.587 0 10-.001-15.174zm-60.683 0h-16.689v-13.773h16.689v13.773zm0-28.946h-16.689v-19.486h16.689v19.486zm0-34.659h-16.689V349.56h16.689v13.773zm-30.308-28.946l-6.568-41.723h57.06l-6.568 41.723h-43.924zM504.413 463.858H385.648c-4.191 0-7.587 3.397-7.587 7.587s3.396 7.587 7.587 7.587h118.765a7.587 7.587 0 000-15.174zM360.358 463.858H8.759a7.587 7.587 0 000 15.174h351.599a7.587 7.587 0 000-15.174z"/></svg>